<svg width="40" height="40" viewBox="0 0 40 40" fill="none" xmlns="http://www.w3.org/2000/svg">
<path opacity="0.2" d="M5.1731 11.6589C5.05973 11.8512 4.99996 12.0704 5 12.2936V27.7065C5 27.9283 5.05902 28.1461 5.17099 28.3375C5.28296 28.529 5.44386 28.6872 5.63717 28.7959L19.3872 36.5303C19.5743 36.6356 19.7853 36.6909 20 36.6908L20.0016 36.6909L20.1483 20L5.17313 11.659L5.1731 11.6589Z" fill="#0B63E5"/>
<path d="M35 27.7063V12.2935C35 12.0717 34.941 11.8539 34.829 11.6624C34.717 11.4709 34.5561 11.3127 34.3628 11.204L20.6128 3.46961C20.4257 3.36437 20.2147 3.30908 20 3.30908C19.7853 3.30908 19.5743 3.36437 19.3872 3.46961L5.63717 11.204C5.44386 11.3127 5.28296 11.4709 5.17099 11.6624C5.05902 11.8539 5 12.0717 5 12.2935V27.7063C5 27.9281 5.05902 28.1459 5.17099 28.3374C5.28296 28.5288 5.44386 28.6871 5.63717 28.7958L19.3872 36.5302C19.5743 36.6354 19.7853 36.6907 20 36.6907C20.2147 36.6907 20.4257 36.6354 20.6128 36.5302L34.3628 28.7958C34.5561 28.6871 34.717 28.5288 34.829 28.3374C34.941 28.1459 35 27.9281 35 27.7063Z" stroke="#0B63E5" stroke-width="2.5" stroke-linecap="round" stroke-linejoin="round"/>
<path d="M27.6597 23.8298V15.7048L12.5 7.34375" stroke="#0B63E5" stroke-width="2.5" stroke-linecap="round" stroke-linejoin="round"/>
<path d="M34.8276 11.6605L20.1483 20L5.1731 11.6589" stroke="#0B63E5" stroke-width="2.5" stroke-linecap="round" stroke-linejoin="round"/>
<path d="M20.1481 20L20.0015 36.6908" stroke="#0B63E5" stroke-width="2.5" stroke-linecap="round" stroke-linejoin="round"/>
</svg>
