<svg width="40" height="40" viewBox="0 0 40 40" fill="none" xmlns="http://www.w3.org/2000/svg">
<path opacity="0.2" d="M14.6966 28.8388C12.9289 34.1421 5.85779 34.1421 5.85779 34.1421C5.85779 34.1421 5.85779 27.071 11.1611 25.3032L14.6966 28.8388Z" fill="#E64545"/>
<path opacity="0.2" d="M21.3569 27.4819L27.5888 21.2499L27.5888 28.321L22.5354 33.3744L21.3569 27.4819Z" fill="#E64545" stroke="#E64545" stroke-width="2.5"/>
<path opacity="0.2" d="M11.679 12.4111H18.7501L12.5182 18.643L6.62561 17.4645L11.679 12.4111Z" fill="#E64545" stroke="#E64545" stroke-width="2.5"/>
<path d="M14.6966 28.8388C12.9289 34.1421 5.85779 34.1421 5.85779 34.1421C5.85779 34.1421 5.85779 27.071 11.1611 25.3032" stroke="#E64545" stroke-width="2.5" stroke-linecap="round" stroke-linejoin="round"/>
<path d="M30.6065 16.4644L19.9999 27.071L12.9288 19.9999L23.5354 9.39333C27.5517 5.37705 31.568 5.41623 33.2808 5.67179C33.5445 5.7111 33.7887 5.83409 33.9772 6.02263C34.1657 6.21117 34.2887 6.45529 34.328 6.71902C34.5836 8.43185 34.6228 12.4481 30.6065 16.4644Z" stroke="#E64545" stroke-width="2.5" stroke-linecap="round" stroke-linejoin="round"/>
<path d="M28.8388 18.2322V28.321C28.8388 28.4852 28.8065 28.6477 28.7437 28.7994C28.6809 28.951 28.5888 29.0888 28.4727 29.2049L23.4193 34.2583C23.2593 34.4183 23.0589 34.5318 22.8395 34.5869C22.62 34.6419 22.3897 34.6363 22.1732 34.5708C21.9567 34.5052 21.762 34.3821 21.6099 34.2146C21.4578 34.0471 21.3541 33.8414 21.3097 33.6196L20 27.071" stroke="#E64545" stroke-width="2.5" stroke-linecap="round" stroke-linejoin="round"/>
<path d="M21.7678 11.1611H11.679C11.5149 11.1611 11.3523 11.1935 11.2007 11.2563C11.049 11.3191 10.9112 11.4112 10.7951 11.5272L5.74173 16.5806C5.58174 16.7406 5.46818 16.941 5.41315 17.1605C5.35812 17.3799 5.36368 17.6102 5.42925 17.8268C5.49481 18.0433 5.61792 18.238 5.78544 18.3901C5.95296 18.5421 6.15861 18.6459 6.38047 18.6903L12.929 20" stroke="#E64545" stroke-width="2.5" stroke-linecap="round" stroke-linejoin="round"/>
</svg>
